# xmcd
#
# Track frame offsets:
# 150
# 13980
# 24095
# 36897
# 51335
# 61577
# 70752
# 81567
# 95595
# 107995
# 116622
# 128460
# 138745
# 151702
# 163000
# 173302
#
# Disc length: 2481 seconds
#
#
# Revision: 3
# Processed by: cddbd v1.5.1PL2 Copyright (c) Steve Scherf et al.
# Submitted via: FreeRIP 2.944 
#
DISCID=ca09af10
DTITLE=Various Artist - Country Greats [Disk 2 of 2]
DYEAR=2004
DGENRE=Country
TTITLE0=Glenn Campbell - Rhinestone Cowboy
TTITLE1=Patsy Cline - Three Cigarettes in an Ashtray
TTITLE2=Dottie West - I Fall to Pieces
TTITLE3=Bobby Bare - For the Good Times
TTITLE4=Billie Jo Spears - It Makes No Difference Now
TTITLE5=Faron Young - Hello Walls
TTITLE6=Lynn Anderson - Someday Soon
TTITLE7=Bill Anderson - The Unicorn
TTITLE8=Bobby Bare - When Love Is Gone
TTITLE9=Waylon Jennings - Love's Gonna Live Here Again
TTITLE10=Diana Trask - It's Mans World
TTITLE11=Johnny Paycheck - A-11
TTITLE12=Gene Autry - Let Me Cry on Your Shoulder
TTITLE13=Johnny Horton - All for the Love of a Girl
TTITLE14=Jo Ann Steele - One Too Many Times
TTITLE15=Billie Jo Spears - Dallas
EXTD=YEAR: 2004
EXTT0=
EXTT1=
EXTT2=
EXTT3=
EXTT4=
EXTT5=
EXTT6=
EXTT7=
EXTT8=
EXTT9=
EXTT10=
EXTT11=
EXTT12=
EXTT13=
EXTT14=
EXTT15=
PLAYORDER=
